<?xml version="1.0" encoding="UTF-8" standalone="no"?>
<!DOCTYPE svg PUBLIC "-//W3C//DTD SVG 1.1//EN" "http://www.w3.org/Graphics/SVG/1.1/DTD/svg11.dtd">
<svg width="100%" height="100%" viewBox="0 0 700 700" version="1.1" xmlns="http://www.w3.org/2000/svg" xmlns:xlink="http://www.w3.org/1999/xlink" xml:space="preserve" xmlns:serif="http://www.serif.com/" style="fill-rule:evenodd;clip-rule:evenodd;stroke-linejoin:round;stroke-miterlimit:2;">
    <g transform="matrix(-1.42016,0,0,1.42016,847.057,-47.6455)">
        <path d="M253.49,133.99C281.154,115.67 314.33,104.998 349.998,104.998C446.65,104.998 524.998,183.346 524.998,279.998C524.998,315.666 514.326,348.842 496.006,376.506L253.49,133.99ZM203.99,183.49C185.67,211.154 174.998,244.33 174.998,279.998C174.998,376.65 253.346,454.998 349.998,454.998C385.666,454.998 418.842,444.326 446.506,426.006L203.99,183.49ZM350,35C214.69,35 105,144.69 105,280C105,415.31 214.69,525 350,525C485.31,525 595,415.31 595,280C595,144.69 485.31,35 350,35Z" style="fill:rgb(41,43,44);"/>
    </g>
</svg>
